<svg width="24" height="36" viewBox="0 0 24 36" fill="none" xmlns="http://www.w3.org/2000/svg">
<g clip-path="url(#clip0_4130_509)">
<path d="M11.0215 8.93302C14.1472 12.9011 15.8158 17.7944 15.7553 22.8155V24.0141L16.7865 24.6416C18.119 25.4482 19.1127 26.6993 19.5866 28.1669C19.1705 27.8605 18.7352 27.5803 18.2833 27.3278L15.5333 25.7838L15.0391 28.9001C14.9963 29.1755 14.9389 29.4485 14.8672 29.718H7.16151C7.04692 29.3655 6.95382 29.0129 6.86789 28.6463L6.24484 25.8261L3.70968 27.2362C3.28615 27.473 2.87723 27.7344 2.48507 28.0188C2.96824 26.5682 3.94123 25.3242 5.24224 24.4935L6.22336 23.866V22.7521C6.24106 17.7513 7.92967 12.8952 11.0287 8.93302H11.0215ZM11.0287 6C10.868 6.00039 10.7128 6.05799 10.5918 6.16216L10.5274 6.21857C6.39778 10.7656 4.10466 16.6454 4.08208 22.745C2.32967 23.8643 1.03251 25.5543 0.417263 27.5197C-0.197979 29.485 -0.0921719 31.6007 0.716194 33.4971C1.56776 31.6455 2.99131 30.1058 4.7839 29.0975C4.96368 29.8642 5.2031 30.6161 5.50005 31.3467C5.53771 31.4871 5.62118 31.6114 5.73763 31.7006C5.85408 31.7898 5.99706 31.8388 6.14458 31.8402H16.0847C16.2852 31.8402 16.4857 31.6498 16.586 31.3537C16.8758 30.6592 17.0778 29.9322 17.1875 29.1892C18.9836 30.1932 20.4083 31.7342 21.2553 33.5887C22.1124 31.7017 22.2451 29.5727 21.6287 27.5967C21.0124 25.6206 19.6888 23.9319 17.9037 22.8437C17.9745 16.7082 15.6935 10.7718 11.5157 6.21857C11.4535 6.15008 11.3773 6.09524 11.2922 6.05759C11.2071 6.01993 11.1149 6.00031 11.0215 6H11.0287Z" fill="#4EA8DE"/>
<path d="M11.0216 22.1598C10.4715 22.1598 9.93376 21.9995 9.47611 21.699C9.01846 21.3986 8.6614 20.9715 8.44993 20.4716C8.23847 19.9716 8.18206 19.4213 8.28782 18.8898C8.39358 18.3584 8.65678 17.8697 9.04423 17.4853C9.43169 17.1009 9.92606 16.838 10.465 16.7298C11.004 16.6216 11.5634 16.6729 12.0728 16.8773C12.5822 17.0816 13.0188 17.4298 13.3275 17.8781C13.6361 18.3263 13.8031 18.8545 13.8074 19.396C13.8159 19.7469 13.7542 20.0961 13.6256 20.4235C13.4971 20.751 13.3043 21.0503 13.0582 21.3043C12.8121 21.5583 12.5176 21.7622 12.1915 21.9041C11.8654 22.0461 11.5141 22.1234 11.1576 22.1316C11.1126 22.1387 11.0666 22.1387 11.0216 22.1316V22.1598Z" fill="#4EA8DE"/>
<path d="M14.8959 33.5958C14.7167 33.5901 14.5382 33.6198 14.3708 33.683C14.2034 33.7462 14.0505 33.8416 13.9211 33.9638C13.7917 34.086 13.6884 34.2323 13.6172 34.3943C13.546 34.5563 13.5084 34.7307 13.5066 34.9072V39.067C13.5066 39.4297 13.653 39.7776 13.9135 40.0342C14.1741 40.2907 14.5274 40.4348 14.8959 40.4348C15.2644 40.4348 15.6178 40.2907 15.8783 40.0342C16.1389 39.7776 16.2852 39.4297 16.2852 39.067V34.9636C16.291 34.7877 16.2611 34.6126 16.1973 34.4482C16.1336 34.2839 16.0372 34.1337 15.9139 34.0064C15.7906 33.879 15.6428 33.7772 15.4791 33.7067C15.3154 33.6362 15.139 33.5985 14.9604 33.5958H14.8959Z" fill="#5E60CE"/>
<path d="M7.16154 33.5957C6.97931 33.5863 6.797 33.6129 6.62546 33.6742C6.45392 33.7355 6.29665 33.8302 6.16302 33.9525C6.02939 34.0749 5.92213 34.2224 5.84761 34.3864C5.77309 34.5504 5.73284 34.7275 5.72925 34.9071V39.067C5.72925 39.4297 5.87562 39.7776 6.13617 40.0341C6.39672 40.2906 6.7501 40.4348 7.11857 40.4348C7.48704 40.4348 7.84042 40.2906 8.10097 40.0341C8.36152 39.7776 8.50789 39.4297 8.50789 39.067V34.9635C8.51362 34.7877 8.48373 34.6125 8.41998 34.4482C8.35623 34.2838 8.25989 34.1336 8.13658 34.0063C8.01326 33.879 7.86544 33.7771 7.70173 33.7067C7.53802 33.6362 7.36169 33.5985 7.18302 33.5957H7.16154Z" fill="#5E60CE"/>
<path d="M10.9213 33.5958C10.7426 33.592 10.5649 33.623 10.3984 33.6869C10.2318 33.7507 10.0797 33.8463 9.95068 33.9681C9.82167 34.0899 9.71828 34.2355 9.64644 34.3966C9.5746 34.5577 9.5357 34.7312 9.53198 34.9072V40.6392C9.53198 41.002 9.67836 41.3499 9.93891 41.6064C10.1995 41.8629 10.5528 42.007 10.9213 42.007C11.2898 42.007 11.6432 41.8629 11.9037 41.6064C12.1643 41.3499 12.3106 41.002 12.3106 40.6392V34.9988C12.3164 34.823 12.2865 34.6478 12.2227 34.4835C12.159 34.3191 12.0626 34.1689 11.9393 34.0416C11.816 33.9143 11.6682 33.8124 11.5045 33.7419C11.3408 33.6714 11.1644 33.6337 10.9858 33.631L10.9213 33.5958Z" fill="#5E60CE"/>
</g>
<defs>
<clipPath id="clip0_4130_509">
<rect width="22" height="36" fill="white" transform="translate(0 6)"/>
</clipPath>
</defs>
</svg>
